<?xml version="1.0" standalone="no"?>
<!DOCTYPE svg PUBLIC "-//W3C//DTD SVG 20010904//EN"
 "http://www.w3.org/TR/2001/REC-SVG-20010904/DTD/svg10.dtd">
<svg version="1.0" xmlns="http://www.w3.org/2000/svg"
 width="283.000000pt" height="221.000000pt" viewBox="0 0 283.000000 221.000000"
 preserveAspectRatio="xMidYMid meet">

<g transform="translate(0.000000,221.000000) scale(0.100000,-0.100000)"
fill="#000000" stroke="none">
<path d="M2432 1949 c-66 -13 -143 -52 -185 -94 -36 -37 -97 -144 -97 -171 0
-31 -25 -22 -80 30 -76 72 -167 116 -246 119 -56 2 -59 1 -57 -20 12 -111 160
-249 289 -270 35 -6 36 -5 29 18 -4 13 -17 38 -29 54 -12 17 -26 36 -30 43
-14 23 25 -2 61 -40 38 -39 53 -76 53 -127 0 -38 -2 -40 -105 -105 -104 -66
-128 -75 -140 -56 -3 6 -18 10 -33 10 -73 0 -100 -79 -42 -122 30 -21 30 -23
30 -114 0 -50 3 -105 6 -122 9 -43 48 -79 140 -129 67 -35 80 -46 82 -70 5
-36 39 -73 69 -73 30 0 73 42 73 72 1 19 18 31 104 72 133 62 136 67 136 225
0 120 0 122 24 131 47 17 60 76 26 110 -21 21 -74 27 -85 10 -13 -20 -43 -8
-147 61 l-108 70 0 87 c0 99 19 152 70 202 38 38 63 40 28 3 -29 -31 -52 -80
-40 -87 14 -9 95 15 145 41 40 22 84 63 126 119 15 19 50 122 44 128 -8 8 -57
6 -111 -5z m-294 -637 c-3 -101 -5 -109 -30 -137 -51 -55 -43 -122 18 -145 41
-16 62 -12 89 17 34 37 32 71 -7 124 -30 40 -33 51 -36 132 -5 123 -3 127 58
83 28 -20 52 -36 55 -36 16 0 105 -67 105 -80 0 -8 -25 -33 -55 -55 -55 -39
-55 -40 -49 -81 11 -73 -33 -136 -106 -151 -29 -5 -30 -7 -30 -68 0 -60 -1
-63 -29 -75 -27 -11 -36 -8 -108 30 -43 24 -86 50 -97 59 -34 29 -46 76 -46
175 0 86 2 96 22 110 20 14 25 13 74 -14 28 -17 57 -30 63 -30 25 0 8 17 -49
48 -59 32 -68 44 -52 70 9 13 191 130 205 131 5 1 7 -47 5 -107z m-230 -34 c4
-33 -29 -62 -62 -54 -35 9 -52 42 -36 72 24 44 92 32 98 -18z m596 32 c27 -26
-3 -90 -43 -90 -23 0 -51 31 -51 56 0 42 61 64 94 34z m-312 -505 c17 -37 -3
-75 -40 -75 -35 0 -52 16 -52 52 0 49 71 68 92 23z"/>
<path d="M1624 1216 c-12 -32 0 -61 28 -64 34 -4 54 27 38 58 -12 23 -58 27
-66 6z"/>
<path d="M443 1174 c-18 -13 -30 -31 -27 -38 6 -15 -19 -38 -37 -34 -9 2 -15
-9 -17 -29 -3 -30 -1 -33 22 -33 25 0 26 -2 26 -65 0 -101 16 -158 49 -178 16
-9 43 -17 60 -17 27 0 31 3 31 28 0 21 -8 30 -33 42 l-32 15 -3 87 -3 87 33 3
c29 3 33 7 36 36 3 30 1 32 -21 28 -35 -6 -45 4 -49 51 l-3 43 -32 -26z"/>
<path d="M600 981 c0 -113 2 -128 23 -158 36 -54 99 -67 155 -33 39 24 42 24
42 4 0 -11 8 -14 33 -12 l32 3 0 160 0 160 -32 3 -33 3 0 -99 c0 -54 -5 -113
-10 -129 -17 -47 -77 -67 -116 -39 -16 12 -20 31 -24 137 l-5 123 -32 1 -33 1
0 -125z"/>
<path d="M940 945 l0 -165 35 0 35 0 0 100 c0 140 17 170 95 170 55 0 65 -25
65 -157 l0 -113 35 0 35 0 0 123 c0 132 -11 165 -62 193 -36 20 -101 17 -131
-6 -30 -24 -37 -25 -37 -6 0 15 -21 26 -51 26 -18 0 -19 -9 -19 -165z"/>
<path d="M1295 1102 c-11 -12 -4 -50 11 -56 9 -3 49 -6 90 -6 41 0 74 -3 74
-8 0 -4 -40 -48 -90 -97 -77 -77 -90 -94 -90 -123 l0 -33 143 3 142 3 0 25 c0
25 -1 25 -92 28 -51 1 -93 6 -93 10 0 4 41 48 90 97 80 79 90 94 90 125 l0 36
-135 1 c-73 0 -136 -2 -140 -5z"/>
<path d="M1620 946 l0 -166 35 0 35 0 -2 163 -3 162 -32 3 -33 3 0 -165z"/>
<path d="M1488 704 c-5 -4 -8 -16 -8 -27 0 -10 -9 -21 -20 -24 -26 -7 -26 -23
0 -23 17 0 19 -8 22 -82 3 -78 5 -83 30 -97 15 -9 30 -12 35 -8 7 8 -8 22 -32
30 -5 2 -10 37 -10 78 0 69 1 74 23 77 29 4 29 20 0 24 -16 2 -24 12 -28 31
-3 16 -8 25 -12 21z"/>
<path d="M1680 571 c0 -66 4 -122 8 -125 19 -12 32 13 30 55 l-3 44 48 3 c33
2 47 7 47 18 0 10 -12 14 -39 14 -42 0 -56 12 -56 45 0 27 13 35 58 35 26 0
37 4 37 15 0 12 -14 15 -65 15 l-65 0 0 -119z"/>
<path d="M408 645 c-21 -12 -28 -23 -28 -45 0 -34 26 -54 82 -64 43 -8 52 -18
44 -50 -8 -32 -48 -41 -88 -21 -36 18 -52 10 -23 -11 12 -9 37 -14 64 -12 34
2 48 9 64 30 19 25 19 29 4 51 -11 17 -32 29 -66 37 -27 6 -52 18 -55 26 -15
39 28 63 78 44 31 -11 46 -6 29 11 -18 18 -77 20 -105 4z"/>
<path d="M660 650 c-8 -5 -27 -7 -42 -4 l-28 6 0 -106 c0 -58 4 -106 9 -106 5
0 11 36 13 81 5 88 15 105 64 115 21 4 37 0 54 -14 22 -18 24 -25 21 -101 -2
-68 0 -81 13 -81 13 0 16 13 16 73 0 81 14 111 55 121 25 6 64 -7 77 -28 4 -6
8 -43 8 -83 0 -71 12 -103 23 -61 9 33 -4 140 -19 165 -21 34 -75 40 -119 13
-33 -20 -37 -21 -54 -6 -23 20 -72 29 -91 16z"/>
<path d="M1049 637 c-58 -39 -65 -122 -14 -173 28 -28 97 -33 132 -9 19 13 22
13 27 0 3 -8 10 -15 16 -15 6 0 10 40 10 105 0 58 -4 105 -9 105 -5 0 -11 -6
-14 -12 -3 -10 -13 -9 -41 5 -48 22 -66 22 -107 -6z m130 -33 c52 -66 -4 -162
-85 -146 -26 5 -74 55 -74 77 0 24 21 70 37 83 9 6 36 12 59 12 34 0 47 -5 63
-26z"/>
<path d="M1282 548 c2 -70 7 -103 16 -106 9 -3 12 17 12 76 0 88 14 112 63
112 15 0 27 5 27 10 0 13 -53 13 -67 -1 -8 -8 -13 -8 -17 0 -4 6 -14 11 -22
11 -12 0 -14 -17 -12 -102z"/>
<path d="M1883 625 c-26 -18 -43 -71 -36 -108 11 -55 68 -88 121 -69 16 5 41
8 55 5 l27 -5 0 91 c0 75 -3 93 -16 98 -9 3 -19 0 -24 -7 -6 -9 -13 -9 -28 -1
-29 16 -74 14 -99 -4z m112 -35 c25 -27 22 -80 -6 -102 -65 -53 -143 30 -93
100 20 29 74 30 99 2z"/>
<path d="M2090 545 c0 -78 3 -95 15 -95 12 0 15 13 15 60 0 65 21 100 60 100
11 0 20 7 20 15 0 18 -31 20 -48 3 -9 -9 -15 -9 -24 0 -30 30 -38 14 -38 -83z"/>
<path d="M2240 543 c0 -86 1 -93 20 -93 18 0 20 7 20 68 0 75 10 92 51 92 38
0 48 -17 51 -95 2 -43 8 -70 16 -73 9 -3 12 14 12 60 0 76 18 108 60 108 38 0
44 -12 50 -93 6 -77 22 -93 31 -28 8 58 -5 122 -27 138 -25 18 -74 16 -96 -4
-16 -15 -19 -15 -36 0 -13 12 -35 15 -85 14 l-67 -2 0 -92z"/>
</g>
</svg>
